<mxfile host="app.diagrams.net" modified="2022-03-17T13:09:29.407Z" agent="5.0 (Macintosh; Intel Mac OS X 10_15_7) AppleWebKit/605.1.15 (KHTML, like Gecko) Version/15.4 Safari/605.1.15" etag="d8VQVd9Xl6IQ_cAeGlVd" version="17.1.3" type="github">
  <diagram id="C5RBs43oDa-KdzZeNtuy" name="Page-1">
    <mxGraphModel dx="925" dy="645" grid="1" gridSize="10" guides="1" tooltips="1" connect="1" arrows="1" fold="1" page="1" pageScale="1" pageWidth="827" pageHeight="1169" math="0" shadow="0">
      <root>
        <mxCell id="WIyWlLk6GJQsqaUBKTNV-0" />
        <mxCell id="WIyWlLk6GJQsqaUBKTNV-1" parent="WIyWlLk6GJQsqaUBKTNV-0" />
        <mxCell id="x7z8SHMq9wQ8COiHljea-58" value="Dispatcher" style="shape=table;startSize=30;container=1;collapsible=1;childLayout=tableLayout;fixedRows=1;rowLines=0;fontStyle=1;align=center;resizeLast=1;rounded=0;sketch=0;fontColor=#46495D;strokeColor=#788AA3;fillColor=#B2C9AB;" vertex="1" parent="WIyWlLk6GJQsqaUBKTNV-1">
          <mxGeometry x="680" y="600" width="180" height="160" as="geometry" />
        </mxCell>
        <mxCell id="x7z8SHMq9wQ8COiHljea-59" value="" style="shape=tableRow;horizontal=0;startSize=0;swimlaneHead=0;swimlaneBody=0;fillColor=none;collapsible=0;dropTarget=0;points=[[0,0.5],[1,0.5]];portConstraint=eastwest;top=0;left=0;right=0;bottom=1;rounded=0;sketch=0;fontColor=#46495D;strokeColor=#788AA3;" vertex="1" parent="x7z8SHMq9wQ8COiHljea-58">
          <mxGeometry y="30" width="180" height="30" as="geometry" />
        </mxCell>
        <mxCell id="x7z8SHMq9wQ8COiHljea-60" value="PK" style="shape=partialRectangle;connectable=0;fillColor=none;top=0;left=0;bottom=0;right=0;fontStyle=1;overflow=hidden;rounded=0;sketch=0;fontColor=#46495D;strokeColor=#788AA3;" vertex="1" parent="x7z8SHMq9wQ8COiHljea-59">
          <mxGeometry width="30" height="30" as="geometry">
            <mxRectangle width="30" height="30" as="alternateBounds" />
          </mxGeometry>
        </mxCell>
        <mxCell id="x7z8SHMq9wQ8COiHljea-61" value="id_dispatcher" style="shape=partialRectangle;connectable=0;fillColor=none;top=0;left=0;bottom=0;right=0;align=left;spacingLeft=6;fontStyle=5;overflow=hidden;rounded=0;sketch=0;fontColor=#46495D;strokeColor=#788AA3;" vertex="1" parent="x7z8SHMq9wQ8COiHljea-59">
          <mxGeometry x="30" width="150" height="30" as="geometry">
            <mxRectangle width="150" height="30" as="alternateBounds" />
          </mxGeometry>
        </mxCell>
        <mxCell id="x7z8SHMq9wQ8COiHljea-62" value="" style="shape=tableRow;horizontal=0;startSize=0;swimlaneHead=0;swimlaneBody=0;fillColor=none;collapsible=0;dropTarget=0;points=[[0,0.5],[1,0.5]];portConstraint=eastwest;top=0;left=0;right=0;bottom=0;rounded=0;sketch=0;fontColor=#46495D;strokeColor=#788AA3;" vertex="1" parent="x7z8SHMq9wQ8COiHljea-58">
          <mxGeometry y="60" width="180" height="30" as="geometry" />
        </mxCell>
        <mxCell id="x7z8SHMq9wQ8COiHljea-63" value="" style="shape=partialRectangle;connectable=0;fillColor=none;top=0;left=0;bottom=0;right=0;editable=1;overflow=hidden;rounded=0;sketch=0;fontColor=#46495D;strokeColor=#788AA3;" vertex="1" parent="x7z8SHMq9wQ8COiHljea-62">
          <mxGeometry width="30" height="30" as="geometry">
            <mxRectangle width="30" height="30" as="alternateBounds" />
          </mxGeometry>
        </mxCell>
        <mxCell id="x7z8SHMq9wQ8COiHljea-64" value="name" style="shape=partialRectangle;connectable=0;fillColor=none;top=0;left=0;bottom=0;right=0;align=left;spacingLeft=6;overflow=hidden;rounded=0;sketch=0;fontColor=#46495D;strokeColor=#788AA3;" vertex="1" parent="x7z8SHMq9wQ8COiHljea-62">
          <mxGeometry x="30" width="150" height="30" as="geometry">
            <mxRectangle width="150" height="30" as="alternateBounds" />
          </mxGeometry>
        </mxCell>
        <mxCell id="x7z8SHMq9wQ8COiHljea-65" value="" style="shape=tableRow;horizontal=0;startSize=0;swimlaneHead=0;swimlaneBody=0;fillColor=none;collapsible=0;dropTarget=0;points=[[0,0.5],[1,0.5]];portConstraint=eastwest;top=0;left=0;right=0;bottom=0;rounded=0;sketch=0;fontColor=#46495D;strokeColor=#788AA3;" vertex="1" parent="x7z8SHMq9wQ8COiHljea-58">
          <mxGeometry y="90" width="180" height="30" as="geometry" />
        </mxCell>
        <mxCell id="x7z8SHMq9wQ8COiHljea-66" value="" style="shape=partialRectangle;connectable=0;fillColor=none;top=0;left=0;bottom=0;right=0;editable=1;overflow=hidden;rounded=0;sketch=0;fontColor=#46495D;strokeColor=#788AA3;" vertex="1" parent="x7z8SHMq9wQ8COiHljea-65">
          <mxGeometry width="30" height="30" as="geometry">
            <mxRectangle width="30" height="30" as="alternateBounds" />
          </mxGeometry>
        </mxCell>
        <mxCell id="x7z8SHMq9wQ8COiHljea-67" value="cellphone" style="shape=partialRectangle;connectable=0;fillColor=none;top=0;left=0;bottom=0;right=0;align=left;spacingLeft=6;overflow=hidden;rounded=0;sketch=0;fontColor=#46495D;strokeColor=#788AA3;" vertex="1" parent="x7z8SHMq9wQ8COiHljea-65">
          <mxGeometry x="30" width="150" height="30" as="geometry">
            <mxRectangle width="150" height="30" as="alternateBounds" />
          </mxGeometry>
        </mxCell>
        <mxCell id="x7z8SHMq9wQ8COiHljea-68" value="" style="shape=tableRow;horizontal=0;startSize=0;swimlaneHead=0;swimlaneBody=0;fillColor=none;collapsible=0;dropTarget=0;points=[[0,0.5],[1,0.5]];portConstraint=eastwest;top=0;left=0;right=0;bottom=0;rounded=0;sketch=0;fontColor=#46495D;strokeColor=#788AA3;" vertex="1" parent="x7z8SHMq9wQ8COiHljea-58">
          <mxGeometry y="120" width="180" height="30" as="geometry" />
        </mxCell>
        <mxCell id="x7z8SHMq9wQ8COiHljea-69" value="" style="shape=partialRectangle;connectable=0;fillColor=none;top=0;left=0;bottom=0;right=0;editable=1;overflow=hidden;rounded=0;sketch=0;fontColor=#46495D;strokeColor=#788AA3;" vertex="1" parent="x7z8SHMq9wQ8COiHljea-68">
          <mxGeometry width="30" height="30" as="geometry">
            <mxRectangle width="30" height="30" as="alternateBounds" />
          </mxGeometry>
        </mxCell>
        <mxCell id="x7z8SHMq9wQ8COiHljea-70" value="debt" style="shape=partialRectangle;connectable=0;fillColor=none;top=0;left=0;bottom=0;right=0;align=left;spacingLeft=6;overflow=hidden;rounded=0;sketch=0;fontColor=#46495D;strokeColor=#788AA3;" vertex="1" parent="x7z8SHMq9wQ8COiHljea-68">
          <mxGeometry x="30" width="150" height="30" as="geometry">
            <mxRectangle width="150" height="30" as="alternateBounds" />
          </mxGeometry>
        </mxCell>
        <mxCell id="x7z8SHMq9wQ8COiHljea-88" value="Users" style="shape=table;startSize=30;container=1;collapsible=1;childLayout=tableLayout;fixedRows=1;rowLines=0;fontStyle=1;align=center;resizeLast=1;rounded=0;sketch=0;fontColor=#46495D;strokeColor=#788AA3;fillColor=#B2C9AB;" vertex="1" parent="WIyWlLk6GJQsqaUBKTNV-1">
          <mxGeometry x="40" y="400" width="180" height="220" as="geometry" />
        </mxCell>
        <mxCell id="x7z8SHMq9wQ8COiHljea-89" value="" style="shape=tableRow;horizontal=0;startSize=0;swimlaneHead=0;swimlaneBody=0;fillColor=none;collapsible=0;dropTarget=0;points=[[0,0.5],[1,0.5]];portConstraint=eastwest;top=0;left=0;right=0;bottom=1;rounded=0;sketch=0;fontColor=#46495D;strokeColor=#788AA3;" vertex="1" parent="x7z8SHMq9wQ8COiHljea-88">
          <mxGeometry y="30" width="180" height="30" as="geometry" />
        </mxCell>
        <mxCell id="x7z8SHMq9wQ8COiHljea-90" value="PK" style="shape=partialRectangle;connectable=0;fillColor=none;top=0;left=0;bottom=0;right=0;fontStyle=1;overflow=hidden;rounded=0;sketch=0;fontColor=#46495D;strokeColor=#788AA3;" vertex="1" parent="x7z8SHMq9wQ8COiHljea-89">
          <mxGeometry width="30" height="30" as="geometry">
            <mxRectangle width="30" height="30" as="alternateBounds" />
          </mxGeometry>
        </mxCell>
        <mxCell id="x7z8SHMq9wQ8COiHljea-91" value="id_user" style="shape=partialRectangle;connectable=0;fillColor=none;top=0;left=0;bottom=0;right=0;align=left;spacingLeft=6;fontStyle=5;overflow=hidden;rounded=0;sketch=0;fontColor=#46495D;strokeColor=#788AA3;" vertex="1" parent="x7z8SHMq9wQ8COiHljea-89">
          <mxGeometry x="30" width="150" height="30" as="geometry">
            <mxRectangle width="150" height="30" as="alternateBounds" />
          </mxGeometry>
        </mxCell>
        <mxCell id="x7z8SHMq9wQ8COiHljea-92" value="" style="shape=tableRow;horizontal=0;startSize=0;swimlaneHead=0;swimlaneBody=0;fillColor=none;collapsible=0;dropTarget=0;points=[[0,0.5],[1,0.5]];portConstraint=eastwest;top=0;left=0;right=0;bottom=0;rounded=0;sketch=0;fontColor=#46495D;strokeColor=#788AA3;" vertex="1" parent="x7z8SHMq9wQ8COiHljea-88">
          <mxGeometry y="60" width="180" height="30" as="geometry" />
        </mxCell>
        <mxCell id="x7z8SHMq9wQ8COiHljea-93" value="" style="shape=partialRectangle;connectable=0;fillColor=none;top=0;left=0;bottom=0;right=0;editable=1;overflow=hidden;rounded=0;sketch=0;fontColor=#46495D;strokeColor=#788AA3;" vertex="1" parent="x7z8SHMq9wQ8COiHljea-92">
          <mxGeometry width="30" height="30" as="geometry">
            <mxRectangle width="30" height="30" as="alternateBounds" />
          </mxGeometry>
        </mxCell>
        <mxCell id="x7z8SHMq9wQ8COiHljea-94" value="name" style="shape=partialRectangle;connectable=0;fillColor=none;top=0;left=0;bottom=0;right=0;align=left;spacingLeft=6;overflow=hidden;rounded=0;sketch=0;fontColor=#46495D;strokeColor=#788AA3;" vertex="1" parent="x7z8SHMq9wQ8COiHljea-92">
          <mxGeometry x="30" width="150" height="30" as="geometry">
            <mxRectangle width="150" height="30" as="alternateBounds" />
          </mxGeometry>
        </mxCell>
        <mxCell id="x7z8SHMq9wQ8COiHljea-95" value="" style="shape=tableRow;horizontal=0;startSize=0;swimlaneHead=0;swimlaneBody=0;fillColor=none;collapsible=0;dropTarget=0;points=[[0,0.5],[1,0.5]];portConstraint=eastwest;top=0;left=0;right=0;bottom=0;rounded=0;sketch=0;fontColor=#46495D;strokeColor=#788AA3;" vertex="1" parent="x7z8SHMq9wQ8COiHljea-88">
          <mxGeometry y="90" width="180" height="30" as="geometry" />
        </mxCell>
        <mxCell id="x7z8SHMq9wQ8COiHljea-96" value="" style="shape=partialRectangle;connectable=0;fillColor=none;top=0;left=0;bottom=0;right=0;editable=1;overflow=hidden;rounded=0;sketch=0;fontColor=#46495D;strokeColor=#788AA3;" vertex="1" parent="x7z8SHMq9wQ8COiHljea-95">
          <mxGeometry width="30" height="30" as="geometry">
            <mxRectangle width="30" height="30" as="alternateBounds" />
          </mxGeometry>
        </mxCell>
        <mxCell id="x7z8SHMq9wQ8COiHljea-97" value="username" style="shape=partialRectangle;connectable=0;fillColor=none;top=0;left=0;bottom=0;right=0;align=left;spacingLeft=6;overflow=hidden;rounded=0;sketch=0;fontColor=#46495D;strokeColor=#788AA3;" vertex="1" parent="x7z8SHMq9wQ8COiHljea-95">
          <mxGeometry x="30" width="150" height="30" as="geometry">
            <mxRectangle width="150" height="30" as="alternateBounds" />
          </mxGeometry>
        </mxCell>
        <mxCell id="x7z8SHMq9wQ8COiHljea-98" value="" style="shape=tableRow;horizontal=0;startSize=0;swimlaneHead=0;swimlaneBody=0;fillColor=none;collapsible=0;dropTarget=0;points=[[0,0.5],[1,0.5]];portConstraint=eastwest;top=0;left=0;right=0;bottom=0;rounded=0;sketch=0;fontColor=#46495D;strokeColor=#788AA3;" vertex="1" parent="x7z8SHMq9wQ8COiHljea-88">
          <mxGeometry y="120" width="180" height="30" as="geometry" />
        </mxCell>
        <mxCell id="x7z8SHMq9wQ8COiHljea-99" value="" style="shape=partialRectangle;connectable=0;fillColor=none;top=0;left=0;bottom=0;right=0;editable=1;overflow=hidden;rounded=0;sketch=0;fontColor=#46495D;strokeColor=#788AA3;" vertex="1" parent="x7z8SHMq9wQ8COiHljea-98">
          <mxGeometry width="30" height="30" as="geometry">
            <mxRectangle width="30" height="30" as="alternateBounds" />
          </mxGeometry>
        </mxCell>
        <mxCell id="x7z8SHMq9wQ8COiHljea-100" value="email" style="shape=partialRectangle;connectable=0;fillColor=none;top=0;left=0;bottom=0;right=0;align=left;spacingLeft=6;overflow=hidden;rounded=0;sketch=0;fontColor=#46495D;strokeColor=#788AA3;" vertex="1" parent="x7z8SHMq9wQ8COiHljea-98">
          <mxGeometry x="30" width="150" height="30" as="geometry">
            <mxRectangle width="150" height="30" as="alternateBounds" />
          </mxGeometry>
        </mxCell>
        <mxCell id="x7z8SHMq9wQ8COiHljea-101" value="" style="shape=tableRow;horizontal=0;startSize=0;swimlaneHead=0;swimlaneBody=0;fillColor=none;collapsible=0;dropTarget=0;points=[[0,0.5],[1,0.5]];portConstraint=eastwest;top=0;left=0;right=0;bottom=0;rounded=0;sketch=0;fontColor=#46495D;strokeColor=#788AA3;" vertex="1" parent="x7z8SHMq9wQ8COiHljea-88">
          <mxGeometry y="150" width="180" height="30" as="geometry" />
        </mxCell>
        <mxCell id="x7z8SHMq9wQ8COiHljea-102" value="" style="shape=partialRectangle;connectable=0;fillColor=none;top=0;left=0;bottom=0;right=0;editable=1;overflow=hidden;rounded=0;sketch=0;fontColor=#46495D;strokeColor=#788AA3;" vertex="1" parent="x7z8SHMq9wQ8COiHljea-101">
          <mxGeometry width="30" height="30" as="geometry">
            <mxRectangle width="30" height="30" as="alternateBounds" />
          </mxGeometry>
        </mxCell>
        <mxCell id="x7z8SHMq9wQ8COiHljea-103" value="password" style="shape=partialRectangle;connectable=0;fillColor=none;top=0;left=0;bottom=0;right=0;align=left;spacingLeft=6;overflow=hidden;rounded=0;sketch=0;fontColor=#46495D;strokeColor=#788AA3;" vertex="1" parent="x7z8SHMq9wQ8COiHljea-101">
          <mxGeometry x="30" width="150" height="30" as="geometry">
            <mxRectangle width="150" height="30" as="alternateBounds" />
          </mxGeometry>
        </mxCell>
        <mxCell id="x7z8SHMq9wQ8COiHljea-104" value="" style="shape=tableRow;horizontal=0;startSize=0;swimlaneHead=0;swimlaneBody=0;fillColor=none;collapsible=0;dropTarget=0;points=[[0,0.5],[1,0.5]];portConstraint=eastwest;top=0;left=0;right=0;bottom=0;rounded=0;sketch=0;fontColor=#46495D;strokeColor=#788AA3;" vertex="1" parent="x7z8SHMq9wQ8COiHljea-88">
          <mxGeometry y="180" width="180" height="30" as="geometry" />
        </mxCell>
        <mxCell id="x7z8SHMq9wQ8COiHljea-105" value="" style="shape=partialRectangle;connectable=0;fillColor=none;top=0;left=0;bottom=0;right=0;editable=1;overflow=hidden;rounded=0;sketch=0;fontColor=#46495D;strokeColor=#788AA3;" vertex="1" parent="x7z8SHMq9wQ8COiHljea-104">
          <mxGeometry width="30" height="30" as="geometry">
            <mxRectangle width="30" height="30" as="alternateBounds" />
          </mxGeometry>
        </mxCell>
        <mxCell id="x7z8SHMq9wQ8COiHljea-106" value="cellphone" style="shape=partialRectangle;connectable=0;fillColor=none;top=0;left=0;bottom=0;right=0;align=left;spacingLeft=6;overflow=hidden;rounded=0;sketch=0;fontColor=#46495D;strokeColor=#788AA3;" vertex="1" parent="x7z8SHMq9wQ8COiHljea-104">
          <mxGeometry x="30" width="150" height="30" as="geometry">
            <mxRectangle width="150" height="30" as="alternateBounds" />
          </mxGeometry>
        </mxCell>
        <mxCell id="x7z8SHMq9wQ8COiHljea-107" value="Clients" style="shape=table;startSize=30;container=1;collapsible=1;childLayout=tableLayout;fixedRows=1;rowLines=0;fontStyle=1;align=center;resizeLast=1;rounded=0;sketch=0;fontColor=#46495D;strokeColor=#788AA3;fillColor=#B2C9AB;" vertex="1" parent="WIyWlLk6GJQsqaUBKTNV-1">
          <mxGeometry x="470" y="690" width="180" height="220" as="geometry" />
        </mxCell>
        <mxCell id="x7z8SHMq9wQ8COiHljea-108" value="" style="shape=tableRow;horizontal=0;startSize=0;swimlaneHead=0;swimlaneBody=0;fillColor=none;collapsible=0;dropTarget=0;points=[[0,0.5],[1,0.5]];portConstraint=eastwest;top=0;left=0;right=0;bottom=1;rounded=0;sketch=0;fontColor=#46495D;strokeColor=#788AA3;" vertex="1" parent="x7z8SHMq9wQ8COiHljea-107">
          <mxGeometry y="30" width="180" height="30" as="geometry" />
        </mxCell>
        <mxCell id="x7z8SHMq9wQ8COiHljea-109" value="PK" style="shape=partialRectangle;connectable=0;fillColor=none;top=0;left=0;bottom=0;right=0;fontStyle=1;overflow=hidden;rounded=0;sketch=0;fontColor=#46495D;strokeColor=#788AA3;" vertex="1" parent="x7z8SHMq9wQ8COiHljea-108">
          <mxGeometry width="30" height="30" as="geometry">
            <mxRectangle width="30" height="30" as="alternateBounds" />
          </mxGeometry>
        </mxCell>
        <mxCell id="x7z8SHMq9wQ8COiHljea-110" value="id_client" style="shape=partialRectangle;connectable=0;fillColor=none;top=0;left=0;bottom=0;right=0;align=left;spacingLeft=6;fontStyle=5;overflow=hidden;rounded=0;sketch=0;fontColor=#46495D;strokeColor=#788AA3;" vertex="1" parent="x7z8SHMq9wQ8COiHljea-108">
          <mxGeometry x="30" width="150" height="30" as="geometry">
            <mxRectangle width="150" height="30" as="alternateBounds" />
          </mxGeometry>
        </mxCell>
        <mxCell id="x7z8SHMq9wQ8COiHljea-111" value="" style="shape=tableRow;horizontal=0;startSize=0;swimlaneHead=0;swimlaneBody=0;fillColor=none;collapsible=0;dropTarget=0;points=[[0,0.5],[1,0.5]];portConstraint=eastwest;top=0;left=0;right=0;bottom=0;rounded=0;sketch=0;fontColor=#46495D;strokeColor=#788AA3;" vertex="1" parent="x7z8SHMq9wQ8COiHljea-107">
          <mxGeometry y="60" width="180" height="30" as="geometry" />
        </mxCell>
        <mxCell id="x7z8SHMq9wQ8COiHljea-112" value="" style="shape=partialRectangle;connectable=0;fillColor=none;top=0;left=0;bottom=0;right=0;editable=1;overflow=hidden;rounded=0;sketch=0;fontColor=#46495D;strokeColor=#788AA3;" vertex="1" parent="x7z8SHMq9wQ8COiHljea-111">
          <mxGeometry width="30" height="30" as="geometry">
            <mxRectangle width="30" height="30" as="alternateBounds" />
          </mxGeometry>
        </mxCell>
        <mxCell id="x7z8SHMq9wQ8COiHljea-113" value="name " style="shape=partialRectangle;connectable=0;fillColor=none;top=0;left=0;bottom=0;right=0;align=left;spacingLeft=6;overflow=hidden;rounded=0;sketch=0;fontColor=#46495D;strokeColor=#788AA3;" vertex="1" parent="x7z8SHMq9wQ8COiHljea-111">
          <mxGeometry x="30" width="150" height="30" as="geometry">
            <mxRectangle width="150" height="30" as="alternateBounds" />
          </mxGeometry>
        </mxCell>
        <mxCell id="x7z8SHMq9wQ8COiHljea-114" value="" style="shape=tableRow;horizontal=0;startSize=0;swimlaneHead=0;swimlaneBody=0;fillColor=none;collapsible=0;dropTarget=0;points=[[0,0.5],[1,0.5]];portConstraint=eastwest;top=0;left=0;right=0;bottom=0;rounded=0;sketch=0;fontColor=#46495D;strokeColor=#788AA3;" vertex="1" parent="x7z8SHMq9wQ8COiHljea-107">
          <mxGeometry y="90" width="180" height="30" as="geometry" />
        </mxCell>
        <mxCell id="x7z8SHMq9wQ8COiHljea-115" value="" style="shape=partialRectangle;connectable=0;fillColor=none;top=0;left=0;bottom=0;right=0;editable=1;overflow=hidden;rounded=0;sketch=0;fontColor=#46495D;strokeColor=#788AA3;" vertex="1" parent="x7z8SHMq9wQ8COiHljea-114">
          <mxGeometry width="30" height="30" as="geometry">
            <mxRectangle width="30" height="30" as="alternateBounds" />
          </mxGeometry>
        </mxCell>
        <mxCell id="x7z8SHMq9wQ8COiHljea-116" value="observation" style="shape=partialRectangle;connectable=0;fillColor=none;top=0;left=0;bottom=0;right=0;align=left;spacingLeft=6;overflow=hidden;rounded=0;sketch=0;fontColor=#46495D;strokeColor=#788AA3;" vertex="1" parent="x7z8SHMq9wQ8COiHljea-114">
          <mxGeometry x="30" width="150" height="30" as="geometry">
            <mxRectangle width="150" height="30" as="alternateBounds" />
          </mxGeometry>
        </mxCell>
        <mxCell id="x7z8SHMq9wQ8COiHljea-117" value="" style="shape=tableRow;horizontal=0;startSize=0;swimlaneHead=0;swimlaneBody=0;fillColor=none;collapsible=0;dropTarget=0;points=[[0,0.5],[1,0.5]];portConstraint=eastwest;top=0;left=0;right=0;bottom=0;rounded=0;sketch=0;fontColor=#46495D;strokeColor=#788AA3;" vertex="1" parent="x7z8SHMq9wQ8COiHljea-107">
          <mxGeometry y="120" width="180" height="30" as="geometry" />
        </mxCell>
        <mxCell id="x7z8SHMq9wQ8COiHljea-118" value="" style="shape=partialRectangle;connectable=0;fillColor=none;top=0;left=0;bottom=0;right=0;editable=1;overflow=hidden;rounded=0;sketch=0;fontColor=#46495D;strokeColor=#788AA3;" vertex="1" parent="x7z8SHMq9wQ8COiHljea-117">
          <mxGeometry width="30" height="30" as="geometry">
            <mxRectangle width="30" height="30" as="alternateBounds" />
          </mxGeometry>
        </mxCell>
        <mxCell id="x7z8SHMq9wQ8COiHljea-119" value="cellphone" style="shape=partialRectangle;connectable=0;fillColor=none;top=0;left=0;bottom=0;right=0;align=left;spacingLeft=6;overflow=hidden;rounded=0;sketch=0;fontColor=#46495D;strokeColor=#788AA3;" vertex="1" parent="x7z8SHMq9wQ8COiHljea-117">
          <mxGeometry x="30" width="150" height="30" as="geometry">
            <mxRectangle width="150" height="30" as="alternateBounds" />
          </mxGeometry>
        </mxCell>
        <mxCell id="x7z8SHMq9wQ8COiHljea-120" value="" style="shape=tableRow;horizontal=0;startSize=0;swimlaneHead=0;swimlaneBody=0;fillColor=none;collapsible=0;dropTarget=0;points=[[0,0.5],[1,0.5]];portConstraint=eastwest;top=0;left=0;right=0;bottom=0;rounded=0;sketch=0;fontColor=#46495D;strokeColor=#788AA3;" vertex="1" parent="x7z8SHMq9wQ8COiHljea-107">
          <mxGeometry y="150" width="180" height="30" as="geometry" />
        </mxCell>
        <mxCell id="x7z8SHMq9wQ8COiHljea-121" value="" style="shape=partialRectangle;connectable=0;fillColor=none;top=0;left=0;bottom=0;right=0;editable=1;overflow=hidden;rounded=0;sketch=0;fontColor=#46495D;strokeColor=#788AA3;" vertex="1" parent="x7z8SHMq9wQ8COiHljea-120">
          <mxGeometry width="30" height="30" as="geometry">
            <mxRectangle width="30" height="30" as="alternateBounds" />
          </mxGeometry>
        </mxCell>
        <mxCell id="x7z8SHMq9wQ8COiHljea-122" value="location" style="shape=partialRectangle;connectable=0;fillColor=none;top=0;left=0;bottom=0;right=0;align=left;spacingLeft=6;overflow=hidden;rounded=0;sketch=0;fontColor=#46495D;strokeColor=#788AA3;" vertex="1" parent="x7z8SHMq9wQ8COiHljea-120">
          <mxGeometry x="30" width="150" height="30" as="geometry">
            <mxRectangle width="150" height="30" as="alternateBounds" />
          </mxGeometry>
        </mxCell>
        <mxCell id="x7z8SHMq9wQ8COiHljea-123" value="" style="shape=tableRow;horizontal=0;startSize=0;swimlaneHead=0;swimlaneBody=0;fillColor=none;collapsible=0;dropTarget=0;points=[[0,0.5],[1,0.5]];portConstraint=eastwest;top=0;left=0;right=0;bottom=0;rounded=0;sketch=0;fontColor=#46495D;strokeColor=#788AA3;" vertex="1" parent="x7z8SHMq9wQ8COiHljea-107">
          <mxGeometry y="180" width="180" height="30" as="geometry" />
        </mxCell>
        <mxCell id="x7z8SHMq9wQ8COiHljea-124" value="" style="shape=partialRectangle;connectable=0;fillColor=none;top=0;left=0;bottom=0;right=0;editable=1;overflow=hidden;rounded=0;sketch=0;fontColor=#46495D;strokeColor=#788AA3;" vertex="1" parent="x7z8SHMq9wQ8COiHljea-123">
          <mxGeometry width="30" height="30" as="geometry">
            <mxRectangle width="30" height="30" as="alternateBounds" />
          </mxGeometry>
        </mxCell>
        <mxCell id="x7z8SHMq9wQ8COiHljea-125" value="housePhoto" style="shape=partialRectangle;connectable=0;fillColor=none;top=0;left=0;bottom=0;right=0;align=left;spacingLeft=6;overflow=hidden;rounded=0;sketch=0;fontColor=#46495D;strokeColor=#788AA3;" vertex="1" parent="x7z8SHMq9wQ8COiHljea-123">
          <mxGeometry x="30" width="150" height="30" as="geometry">
            <mxRectangle width="150" height="30" as="alternateBounds" />
          </mxGeometry>
        </mxCell>
        <mxCell id="x7z8SHMq9wQ8COiHljea-126" value="Menu" style="shape=table;startSize=30;container=1;collapsible=1;childLayout=tableLayout;fixedRows=1;rowLines=0;fontStyle=1;align=center;resizeLast=1;rounded=0;sketch=0;fontColor=#46495D;strokeColor=#788AA3;fillColor=#B2C9AB;" vertex="1" parent="WIyWlLk6GJQsqaUBKTNV-1">
          <mxGeometry x="160" y="730" width="180" height="190" as="geometry" />
        </mxCell>
        <mxCell id="x7z8SHMq9wQ8COiHljea-127" value="" style="shape=tableRow;horizontal=0;startSize=0;swimlaneHead=0;swimlaneBody=0;fillColor=none;collapsible=0;dropTarget=0;points=[[0,0.5],[1,0.5]];portConstraint=eastwest;top=0;left=0;right=0;bottom=1;rounded=0;sketch=0;fontColor=#46495D;strokeColor=#788AA3;" vertex="1" parent="x7z8SHMq9wQ8COiHljea-126">
          <mxGeometry y="30" width="180" height="30" as="geometry" />
        </mxCell>
        <mxCell id="x7z8SHMq9wQ8COiHljea-128" value="PK" style="shape=partialRectangle;connectable=0;fillColor=none;top=0;left=0;bottom=0;right=0;fontStyle=1;overflow=hidden;rounded=0;sketch=0;fontColor=#46495D;strokeColor=#788AA3;" vertex="1" parent="x7z8SHMq9wQ8COiHljea-127">
          <mxGeometry width="30" height="30" as="geometry">
            <mxRectangle width="30" height="30" as="alternateBounds" />
          </mxGeometry>
        </mxCell>
        <mxCell id="x7z8SHMq9wQ8COiHljea-129" value="id_menu" style="shape=partialRectangle;connectable=0;fillColor=none;top=0;left=0;bottom=0;right=0;align=left;spacingLeft=6;fontStyle=5;overflow=hidden;rounded=0;sketch=0;fontColor=#46495D;strokeColor=#788AA3;" vertex="1" parent="x7z8SHMq9wQ8COiHljea-127">
          <mxGeometry x="30" width="150" height="30" as="geometry">
            <mxRectangle width="150" height="30" as="alternateBounds" />
          </mxGeometry>
        </mxCell>
        <mxCell id="x7z8SHMq9wQ8COiHljea-130" value="" style="shape=tableRow;horizontal=0;startSize=0;swimlaneHead=0;swimlaneBody=0;fillColor=none;collapsible=0;dropTarget=0;points=[[0,0.5],[1,0.5]];portConstraint=eastwest;top=0;left=0;right=0;bottom=0;rounded=0;sketch=0;fontColor=#46495D;strokeColor=#788AA3;" vertex="1" parent="x7z8SHMq9wQ8COiHljea-126">
          <mxGeometry y="60" width="180" height="30" as="geometry" />
        </mxCell>
        <mxCell id="x7z8SHMq9wQ8COiHljea-131" value="" style="shape=partialRectangle;connectable=0;fillColor=none;top=0;left=0;bottom=0;right=0;editable=1;overflow=hidden;rounded=0;sketch=0;fontColor=#46495D;strokeColor=#788AA3;" vertex="1" parent="x7z8SHMq9wQ8COiHljea-130">
          <mxGeometry width="30" height="30" as="geometry">
            <mxRectangle width="30" height="30" as="alternateBounds" />
          </mxGeometry>
        </mxCell>
        <mxCell id="x7z8SHMq9wQ8COiHljea-132" value="name" style="shape=partialRectangle;connectable=0;fillColor=none;top=0;left=0;bottom=0;right=0;align=left;spacingLeft=6;overflow=hidden;rounded=0;sketch=0;fontColor=#46495D;strokeColor=#788AA3;" vertex="1" parent="x7z8SHMq9wQ8COiHljea-130">
          <mxGeometry x="30" width="150" height="30" as="geometry">
            <mxRectangle width="150" height="30" as="alternateBounds" />
          </mxGeometry>
        </mxCell>
        <mxCell id="x7z8SHMq9wQ8COiHljea-133" value="" style="shape=tableRow;horizontal=0;startSize=0;swimlaneHead=0;swimlaneBody=0;fillColor=none;collapsible=0;dropTarget=0;points=[[0,0.5],[1,0.5]];portConstraint=eastwest;top=0;left=0;right=0;bottom=0;rounded=0;sketch=0;fontColor=#46495D;strokeColor=#788AA3;" vertex="1" parent="x7z8SHMq9wQ8COiHljea-126">
          <mxGeometry y="90" width="180" height="30" as="geometry" />
        </mxCell>
        <mxCell id="x7z8SHMq9wQ8COiHljea-134" value="" style="shape=partialRectangle;connectable=0;fillColor=none;top=0;left=0;bottom=0;right=0;editable=1;overflow=hidden;rounded=0;sketch=0;fontColor=#46495D;strokeColor=#788AA3;" vertex="1" parent="x7z8SHMq9wQ8COiHljea-133">
          <mxGeometry width="30" height="30" as="geometry">
            <mxRectangle width="30" height="30" as="alternateBounds" />
          </mxGeometry>
        </mxCell>
        <mxCell id="x7z8SHMq9wQ8COiHljea-135" value="price" style="shape=partialRectangle;connectable=0;fillColor=none;top=0;left=0;bottom=0;right=0;align=left;spacingLeft=6;overflow=hidden;rounded=0;sketch=0;fontColor=#46495D;strokeColor=#788AA3;" vertex="1" parent="x7z8SHMq9wQ8COiHljea-133">
          <mxGeometry x="30" width="150" height="30" as="geometry">
            <mxRectangle width="150" height="30" as="alternateBounds" />
          </mxGeometry>
        </mxCell>
        <mxCell id="x7z8SHMq9wQ8COiHljea-136" value="" style="shape=tableRow;horizontal=0;startSize=0;swimlaneHead=0;swimlaneBody=0;fillColor=none;collapsible=0;dropTarget=0;points=[[0,0.5],[1,0.5]];portConstraint=eastwest;top=0;left=0;right=0;bottom=0;rounded=0;sketch=0;fontColor=#46495D;strokeColor=#788AA3;" vertex="1" parent="x7z8SHMq9wQ8COiHljea-126">
          <mxGeometry y="120" width="180" height="30" as="geometry" />
        </mxCell>
        <mxCell id="x7z8SHMq9wQ8COiHljea-137" value="" style="shape=partialRectangle;connectable=0;fillColor=none;top=0;left=0;bottom=0;right=0;editable=1;overflow=hidden;rounded=0;sketch=0;fontColor=#46495D;strokeColor=#788AA3;" vertex="1" parent="x7z8SHMq9wQ8COiHljea-136">
          <mxGeometry width="30" height="30" as="geometry">
            <mxRectangle width="30" height="30" as="alternateBounds" />
          </mxGeometry>
        </mxCell>
        <mxCell id="x7z8SHMq9wQ8COiHljea-138" value="category" style="shape=partialRectangle;connectable=0;fillColor=none;top=0;left=0;bottom=0;right=0;align=left;spacingLeft=6;overflow=hidden;rounded=0;sketch=0;fontColor=#46495D;strokeColor=#788AA3;" vertex="1" parent="x7z8SHMq9wQ8COiHljea-136">
          <mxGeometry x="30" width="150" height="30" as="geometry">
            <mxRectangle width="150" height="30" as="alternateBounds" />
          </mxGeometry>
        </mxCell>
        <mxCell id="x7z8SHMq9wQ8COiHljea-190" value="" style="shape=tableRow;horizontal=0;startSize=0;swimlaneHead=0;swimlaneBody=0;fillColor=none;collapsible=0;dropTarget=0;points=[[0,0.5],[1,0.5]];portConstraint=eastwest;top=0;left=0;right=0;bottom=0;rounded=0;sketch=0;fontColor=#46495D;strokeColor=#788AA3;" vertex="1" parent="x7z8SHMq9wQ8COiHljea-126">
          <mxGeometry y="150" width="180" height="30" as="geometry" />
        </mxCell>
        <mxCell id="x7z8SHMq9wQ8COiHljea-191" value="" style="shape=partialRectangle;connectable=0;fillColor=none;top=0;left=0;bottom=0;right=0;editable=1;overflow=hidden;rounded=0;sketch=0;fontColor=#46495D;strokeColor=#788AA3;" vertex="1" parent="x7z8SHMq9wQ8COiHljea-190">
          <mxGeometry width="30" height="30" as="geometry">
            <mxRectangle width="30" height="30" as="alternateBounds" />
          </mxGeometry>
        </mxCell>
        <mxCell id="x7z8SHMq9wQ8COiHljea-192" value="state" style="shape=partialRectangle;connectable=0;fillColor=none;top=0;left=0;bottom=0;right=0;align=left;spacingLeft=6;overflow=hidden;rounded=0;sketch=0;fontColor=#46495D;strokeColor=#788AA3;" vertex="1" parent="x7z8SHMq9wQ8COiHljea-190">
          <mxGeometry x="30" width="150" height="30" as="geometry">
            <mxRectangle width="150" height="30" as="alternateBounds" />
          </mxGeometry>
        </mxCell>
        <mxCell id="x7z8SHMq9wQ8COiHljea-139" value="Order" style="shape=table;startSize=30;container=1;collapsible=1;childLayout=tableLayout;fixedRows=1;rowLines=0;fontStyle=1;align=center;resizeLast=1;rounded=0;sketch=0;fontColor=#46495D;strokeColor=#788AA3;fillColor=#B2C9AB;" vertex="1" parent="WIyWlLk6GJQsqaUBKTNV-1">
          <mxGeometry x="270" y="440" width="180" height="250" as="geometry" />
        </mxCell>
        <mxCell id="x7z8SHMq9wQ8COiHljea-140" value="" style="shape=tableRow;horizontal=0;startSize=0;swimlaneHead=0;swimlaneBody=0;fillColor=none;collapsible=0;dropTarget=0;points=[[0,0.5],[1,0.5]];portConstraint=eastwest;top=0;left=0;right=0;bottom=1;rounded=0;sketch=0;fontColor=#46495D;strokeColor=#788AA3;" vertex="1" parent="x7z8SHMq9wQ8COiHljea-139">
          <mxGeometry y="30" width="180" height="30" as="geometry" />
        </mxCell>
        <mxCell id="x7z8SHMq9wQ8COiHljea-141" value="PK" style="shape=partialRectangle;connectable=0;fillColor=none;top=0;left=0;bottom=0;right=0;fontStyle=1;overflow=hidden;rounded=0;sketch=0;fontColor=#46495D;strokeColor=#788AA3;" vertex="1" parent="x7z8SHMq9wQ8COiHljea-140">
          <mxGeometry width="30" height="30" as="geometry">
            <mxRectangle width="30" height="30" as="alternateBounds" />
          </mxGeometry>
        </mxCell>
        <mxCell id="x7z8SHMq9wQ8COiHljea-142" value="id_order" style="shape=partialRectangle;connectable=0;fillColor=none;top=0;left=0;bottom=0;right=0;align=left;spacingLeft=6;fontStyle=5;overflow=hidden;rounded=0;sketch=0;fontColor=#46495D;strokeColor=#788AA3;" vertex="1" parent="x7z8SHMq9wQ8COiHljea-140">
          <mxGeometry x="30" width="150" height="30" as="geometry">
            <mxRectangle width="150" height="30" as="alternateBounds" />
          </mxGeometry>
        </mxCell>
        <mxCell id="x7z8SHMq9wQ8COiHljea-143" value="" style="shape=tableRow;horizontal=0;startSize=0;swimlaneHead=0;swimlaneBody=0;fillColor=none;collapsible=0;dropTarget=0;points=[[0,0.5],[1,0.5]];portConstraint=eastwest;top=0;left=0;right=0;bottom=0;rounded=0;sketch=0;fontColor=#46495D;strokeColor=#788AA3;" vertex="1" parent="x7z8SHMq9wQ8COiHljea-139">
          <mxGeometry y="60" width="180" height="30" as="geometry" />
        </mxCell>
        <mxCell id="x7z8SHMq9wQ8COiHljea-144" value="FK" style="shape=partialRectangle;connectable=0;fillColor=none;top=0;left=0;bottom=0;right=0;editable=1;overflow=hidden;rounded=0;sketch=0;fontColor=#46495D;strokeColor=#788AA3;fontStyle=1" vertex="1" parent="x7z8SHMq9wQ8COiHljea-143">
          <mxGeometry width="30" height="30" as="geometry">
            <mxRectangle width="30" height="30" as="alternateBounds" />
          </mxGeometry>
        </mxCell>
        <mxCell id="x7z8SHMq9wQ8COiHljea-145" value="id_user" style="shape=partialRectangle;connectable=0;fillColor=none;top=0;left=0;bottom=0;right=0;align=left;spacingLeft=6;overflow=hidden;rounded=0;sketch=0;fontColor=#46495D;strokeColor=#788AA3;fontStyle=1" vertex="1" parent="x7z8SHMq9wQ8COiHljea-143">
          <mxGeometry x="30" width="150" height="30" as="geometry">
            <mxRectangle width="150" height="30" as="alternateBounds" />
          </mxGeometry>
        </mxCell>
        <mxCell id="x7z8SHMq9wQ8COiHljea-146" value="" style="shape=tableRow;horizontal=0;startSize=0;swimlaneHead=0;swimlaneBody=0;fillColor=none;collapsible=0;dropTarget=0;points=[[0,0.5],[1,0.5]];portConstraint=eastwest;top=0;left=0;right=0;bottom=0;rounded=0;sketch=0;fontColor=#46495D;strokeColor=#788AA3;" vertex="1" parent="x7z8SHMq9wQ8COiHljea-139">
          <mxGeometry y="90" width="180" height="30" as="geometry" />
        </mxCell>
        <mxCell id="x7z8SHMq9wQ8COiHljea-147" value="FK" style="shape=partialRectangle;connectable=0;fillColor=none;top=0;left=0;bottom=0;right=0;editable=1;overflow=hidden;rounded=0;sketch=0;fontColor=#46495D;strokeColor=#788AA3;fontStyle=1" vertex="1" parent="x7z8SHMq9wQ8COiHljea-146">
          <mxGeometry width="30" height="30" as="geometry">
            <mxRectangle width="30" height="30" as="alternateBounds" />
          </mxGeometry>
        </mxCell>
        <mxCell id="x7z8SHMq9wQ8COiHljea-148" value="id_menu" style="shape=partialRectangle;connectable=0;fillColor=none;top=0;left=0;bottom=0;right=0;align=left;spacingLeft=6;overflow=hidden;rounded=0;sketch=0;fontColor=#46495D;strokeColor=#788AA3;fontStyle=1" vertex="1" parent="x7z8SHMq9wQ8COiHljea-146">
          <mxGeometry x="30" width="150" height="30" as="geometry">
            <mxRectangle width="150" height="30" as="alternateBounds" />
          </mxGeometry>
        </mxCell>
        <mxCell id="x7z8SHMq9wQ8COiHljea-186" value="" style="shape=tableRow;horizontal=0;startSize=0;swimlaneHead=0;swimlaneBody=0;fillColor=none;collapsible=0;dropTarget=0;points=[[0,0.5],[1,0.5]];portConstraint=eastwest;top=0;left=0;right=0;bottom=0;rounded=0;sketch=0;fontColor=#46495D;strokeColor=#788AA3;" vertex="1" parent="x7z8SHMq9wQ8COiHljea-139">
          <mxGeometry y="120" width="180" height="30" as="geometry" />
        </mxCell>
        <mxCell id="x7z8SHMq9wQ8COiHljea-187" value="FK" style="shape=partialRectangle;connectable=0;fillColor=none;top=0;left=0;bottom=0;right=0;editable=1;overflow=hidden;rounded=0;sketch=0;fontColor=#46495D;strokeColor=#788AA3;fontStyle=1" vertex="1" parent="x7z8SHMq9wQ8COiHljea-186">
          <mxGeometry width="30" height="30" as="geometry">
            <mxRectangle width="30" height="30" as="alternateBounds" />
          </mxGeometry>
        </mxCell>
        <mxCell id="x7z8SHMq9wQ8COiHljea-188" value="id_client" style="shape=partialRectangle;connectable=0;fillColor=none;top=0;left=0;bottom=0;right=0;align=left;spacingLeft=6;overflow=hidden;rounded=0;sketch=0;fontColor=#46495D;strokeColor=#788AA3;fontStyle=1" vertex="1" parent="x7z8SHMq9wQ8COiHljea-186">
          <mxGeometry x="30" width="150" height="30" as="geometry">
            <mxRectangle width="150" height="30" as="alternateBounds" />
          </mxGeometry>
        </mxCell>
        <mxCell id="x7z8SHMq9wQ8COiHljea-149" value="" style="shape=tableRow;horizontal=0;startSize=0;swimlaneHead=0;swimlaneBody=0;fillColor=none;collapsible=0;dropTarget=0;points=[[0,0.5],[1,0.5]];portConstraint=eastwest;top=0;left=0;right=0;bottom=0;rounded=0;sketch=0;fontColor=#46495D;strokeColor=#788AA3;" vertex="1" parent="x7z8SHMq9wQ8COiHljea-139">
          <mxGeometry y="150" width="180" height="30" as="geometry" />
        </mxCell>
        <mxCell id="x7z8SHMq9wQ8COiHljea-150" value="" style="shape=partialRectangle;connectable=0;fillColor=none;top=0;left=0;bottom=0;right=0;editable=1;overflow=hidden;rounded=0;sketch=0;fontColor=#46495D;strokeColor=#788AA3;" vertex="1" parent="x7z8SHMq9wQ8COiHljea-149">
          <mxGeometry width="30" height="30" as="geometry">
            <mxRectangle width="30" height="30" as="alternateBounds" />
          </mxGeometry>
        </mxCell>
        <mxCell id="x7z8SHMq9wQ8COiHljea-151" value="quantity" style="shape=partialRectangle;connectable=0;fillColor=none;top=0;left=0;bottom=0;right=0;align=left;spacingLeft=6;overflow=hidden;rounded=0;sketch=0;fontColor=#46495D;strokeColor=#788AA3;" vertex="1" parent="x7z8SHMq9wQ8COiHljea-149">
          <mxGeometry x="30" width="150" height="30" as="geometry">
            <mxRectangle width="150" height="30" as="alternateBounds" />
          </mxGeometry>
        </mxCell>
        <mxCell id="x7z8SHMq9wQ8COiHljea-152" value="" style="shape=tableRow;horizontal=0;startSize=0;swimlaneHead=0;swimlaneBody=0;fillColor=none;collapsible=0;dropTarget=0;points=[[0,0.5],[1,0.5]];portConstraint=eastwest;top=0;left=0;right=0;bottom=0;rounded=0;sketch=0;fontColor=#46495D;strokeColor=#788AA3;" vertex="1" parent="x7z8SHMq9wQ8COiHljea-139">
          <mxGeometry y="180" width="180" height="30" as="geometry" />
        </mxCell>
        <mxCell id="x7z8SHMq9wQ8COiHljea-153" value="" style="shape=partialRectangle;connectable=0;fillColor=none;top=0;left=0;bottom=0;right=0;editable=1;overflow=hidden;rounded=0;sketch=0;fontColor=#46495D;strokeColor=#788AA3;" vertex="1" parent="x7z8SHMq9wQ8COiHljea-152">
          <mxGeometry width="30" height="30" as="geometry">
            <mxRectangle width="30" height="30" as="alternateBounds" />
          </mxGeometry>
        </mxCell>
        <mxCell id="x7z8SHMq9wQ8COiHljea-154" value="orderTime" style="shape=partialRectangle;connectable=0;fillColor=none;top=0;left=0;bottom=0;right=0;align=left;spacingLeft=6;overflow=hidden;rounded=0;sketch=0;fontColor=#46495D;strokeColor=#788AA3;" vertex="1" parent="x7z8SHMq9wQ8COiHljea-152">
          <mxGeometry x="30" width="150" height="30" as="geometry">
            <mxRectangle width="150" height="30" as="alternateBounds" />
          </mxGeometry>
        </mxCell>
        <mxCell id="x7z8SHMq9wQ8COiHljea-155" value="" style="shape=tableRow;horizontal=0;startSize=0;swimlaneHead=0;swimlaneBody=0;fillColor=none;collapsible=0;dropTarget=0;points=[[0,0.5],[1,0.5]];portConstraint=eastwest;top=0;left=0;right=0;bottom=0;rounded=0;sketch=0;fontColor=#46495D;strokeColor=#788AA3;" vertex="1" parent="x7z8SHMq9wQ8COiHljea-139">
          <mxGeometry y="210" width="180" height="30" as="geometry" />
        </mxCell>
        <mxCell id="x7z8SHMq9wQ8COiHljea-156" value="" style="shape=partialRectangle;connectable=0;fillColor=none;top=0;left=0;bottom=0;right=0;editable=1;overflow=hidden;rounded=0;sketch=0;fontColor=#46495D;strokeColor=#788AA3;" vertex="1" parent="x7z8SHMq9wQ8COiHljea-155">
          <mxGeometry width="30" height="30" as="geometry">
            <mxRectangle width="30" height="30" as="alternateBounds" />
          </mxGeometry>
        </mxCell>
        <mxCell id="x7z8SHMq9wQ8COiHljea-157" value="comment" style="shape=partialRectangle;connectable=0;fillColor=none;top=0;left=0;bottom=0;right=0;align=left;spacingLeft=6;overflow=hidden;rounded=0;sketch=0;fontColor=#46495D;strokeColor=#788AA3;" vertex="1" parent="x7z8SHMq9wQ8COiHljea-155">
          <mxGeometry x="30" width="150" height="30" as="geometry">
            <mxRectangle width="150" height="30" as="alternateBounds" />
          </mxGeometry>
        </mxCell>
        <mxCell id="x7z8SHMq9wQ8COiHljea-158" value="Distribution" style="shape=table;startSize=30;container=1;collapsible=1;childLayout=tableLayout;fixedRows=1;rowLines=0;fontStyle=1;align=center;resizeLast=1;rounded=0;sketch=0;fontColor=#46495D;strokeColor=#788AA3;fillColor=#B2C9AB;" vertex="1" parent="WIyWlLk6GJQsqaUBKTNV-1">
          <mxGeometry x="510" y="310" width="180" height="250" as="geometry" />
        </mxCell>
        <mxCell id="x7z8SHMq9wQ8COiHljea-159" value="" style="shape=tableRow;horizontal=0;startSize=0;swimlaneHead=0;swimlaneBody=0;fillColor=none;collapsible=0;dropTarget=0;points=[[0,0.5],[1,0.5]];portConstraint=eastwest;top=0;left=0;right=0;bottom=1;rounded=0;sketch=0;fontColor=#46495D;strokeColor=#788AA3;" vertex="1" parent="x7z8SHMq9wQ8COiHljea-158">
          <mxGeometry y="30" width="180" height="30" as="geometry" />
        </mxCell>
        <mxCell id="x7z8SHMq9wQ8COiHljea-160" value="PK" style="shape=partialRectangle;connectable=0;fillColor=none;top=0;left=0;bottom=0;right=0;fontStyle=1;overflow=hidden;rounded=0;sketch=0;fontColor=#46495D;strokeColor=#788AA3;" vertex="1" parent="x7z8SHMq9wQ8COiHljea-159">
          <mxGeometry width="30" height="30" as="geometry">
            <mxRectangle width="30" height="30" as="alternateBounds" />
          </mxGeometry>
        </mxCell>
        <mxCell id="x7z8SHMq9wQ8COiHljea-161" value="id_distribution" style="shape=partialRectangle;connectable=0;fillColor=none;top=0;left=0;bottom=0;right=0;align=left;spacingLeft=6;fontStyle=5;overflow=hidden;rounded=0;sketch=0;fontColor=#46495D;strokeColor=#788AA3;" vertex="1" parent="x7z8SHMq9wQ8COiHljea-159">
          <mxGeometry x="30" width="150" height="30" as="geometry">
            <mxRectangle width="150" height="30" as="alternateBounds" />
          </mxGeometry>
        </mxCell>
        <mxCell id="x7z8SHMq9wQ8COiHljea-162" value="" style="shape=tableRow;horizontal=0;startSize=0;swimlaneHead=0;swimlaneBody=0;fillColor=none;collapsible=0;dropTarget=0;points=[[0,0.5],[1,0.5]];portConstraint=eastwest;top=0;left=0;right=0;bottom=0;rounded=0;sketch=0;fontColor=#46495D;strokeColor=#788AA3;" vertex="1" parent="x7z8SHMq9wQ8COiHljea-158">
          <mxGeometry y="60" width="180" height="30" as="geometry" />
        </mxCell>
        <mxCell id="x7z8SHMq9wQ8COiHljea-163" value="FK" style="shape=partialRectangle;connectable=0;fillColor=none;top=0;left=0;bottom=0;right=0;editable=1;overflow=hidden;rounded=0;sketch=0;fontColor=#46495D;strokeColor=#788AA3;fontStyle=1" vertex="1" parent="x7z8SHMq9wQ8COiHljea-162">
          <mxGeometry width="30" height="30" as="geometry">
            <mxRectangle width="30" height="30" as="alternateBounds" />
          </mxGeometry>
        </mxCell>
        <mxCell id="x7z8SHMq9wQ8COiHljea-164" value="id_dispatcher" style="shape=partialRectangle;connectable=0;fillColor=none;top=0;left=0;bottom=0;right=0;align=left;spacingLeft=6;overflow=hidden;rounded=0;sketch=0;fontColor=#46495D;strokeColor=#788AA3;fontStyle=1" vertex="1" parent="x7z8SHMq9wQ8COiHljea-162">
          <mxGeometry x="30" width="150" height="30" as="geometry">
            <mxRectangle width="150" height="30" as="alternateBounds" />
          </mxGeometry>
        </mxCell>
        <mxCell id="x7z8SHMq9wQ8COiHljea-165" value="" style="shape=tableRow;horizontal=0;startSize=0;swimlaneHead=0;swimlaneBody=0;fillColor=none;collapsible=0;dropTarget=0;points=[[0,0.5],[1,0.5]];portConstraint=eastwest;top=0;left=0;right=0;bottom=0;rounded=0;sketch=0;fontColor=#46495D;strokeColor=#788AA3;" vertex="1" parent="x7z8SHMq9wQ8COiHljea-158">
          <mxGeometry y="90" width="180" height="30" as="geometry" />
        </mxCell>
        <mxCell id="x7z8SHMq9wQ8COiHljea-166" value="FK" style="shape=partialRectangle;connectable=0;fillColor=none;top=0;left=0;bottom=0;right=0;editable=1;overflow=hidden;rounded=0;sketch=0;fontColor=#46495D;strokeColor=#788AA3;fontStyle=1" vertex="1" parent="x7z8SHMq9wQ8COiHljea-165">
          <mxGeometry width="30" height="30" as="geometry">
            <mxRectangle width="30" height="30" as="alternateBounds" />
          </mxGeometry>
        </mxCell>
        <mxCell id="x7z8SHMq9wQ8COiHljea-167" value="id_order" style="shape=partialRectangle;connectable=0;fillColor=none;top=0;left=0;bottom=0;right=0;align=left;spacingLeft=6;overflow=hidden;rounded=0;sketch=0;fontColor=#46495D;strokeColor=#788AA3;fontStyle=1" vertex="1" parent="x7z8SHMq9wQ8COiHljea-165">
          <mxGeometry x="30" width="150" height="30" as="geometry">
            <mxRectangle width="150" height="30" as="alternateBounds" />
          </mxGeometry>
        </mxCell>
        <mxCell id="x7z8SHMq9wQ8COiHljea-168" value="" style="shape=tableRow;horizontal=0;startSize=0;swimlaneHead=0;swimlaneBody=0;fillColor=none;collapsible=0;dropTarget=0;points=[[0,0.5],[1,0.5]];portConstraint=eastwest;top=0;left=0;right=0;bottom=0;rounded=0;sketch=0;fontColor=#46495D;strokeColor=#788AA3;" vertex="1" parent="x7z8SHMq9wQ8COiHljea-158">
          <mxGeometry y="120" width="180" height="30" as="geometry" />
        </mxCell>
        <mxCell id="x7z8SHMq9wQ8COiHljea-169" value="" style="shape=partialRectangle;connectable=0;fillColor=none;top=0;left=0;bottom=0;right=0;editable=1;overflow=hidden;rounded=0;sketch=0;fontColor=#46495D;strokeColor=#788AA3;" vertex="1" parent="x7z8SHMq9wQ8COiHljea-168">
          <mxGeometry width="30" height="30" as="geometry">
            <mxRectangle width="30" height="30" as="alternateBounds" />
          </mxGeometry>
        </mxCell>
        <mxCell id="x7z8SHMq9wQ8COiHljea-170" value="zone" style="shape=partialRectangle;connectable=0;fillColor=none;top=0;left=0;bottom=0;right=0;align=left;spacingLeft=6;overflow=hidden;rounded=0;sketch=0;fontColor=#46495D;strokeColor=#788AA3;" vertex="1" parent="x7z8SHMq9wQ8COiHljea-168">
          <mxGeometry x="30" width="150" height="30" as="geometry">
            <mxRectangle width="150" height="30" as="alternateBounds" />
          </mxGeometry>
        </mxCell>
        <mxCell id="x7z8SHMq9wQ8COiHljea-171" value="" style="shape=tableRow;horizontal=0;startSize=0;swimlaneHead=0;swimlaneBody=0;fillColor=none;collapsible=0;dropTarget=0;points=[[0,0.5],[1,0.5]];portConstraint=eastwest;top=0;left=0;right=0;bottom=0;rounded=0;sketch=0;fontColor=#46495D;strokeColor=#788AA3;" vertex="1" parent="x7z8SHMq9wQ8COiHljea-158">
          <mxGeometry y="150" width="180" height="30" as="geometry" />
        </mxCell>
        <mxCell id="x7z8SHMq9wQ8COiHljea-172" value="" style="shape=partialRectangle;connectable=0;fillColor=none;top=0;left=0;bottom=0;right=0;editable=1;overflow=hidden;rounded=0;sketch=0;fontColor=#46495D;strokeColor=#788AA3;" vertex="1" parent="x7z8SHMq9wQ8COiHljea-171">
          <mxGeometry width="30" height="30" as="geometry">
            <mxRectangle width="30" height="30" as="alternateBounds" />
          </mxGeometry>
        </mxCell>
        <mxCell id="x7z8SHMq9wQ8COiHljea-173" value="deapartureTime" style="shape=partialRectangle;connectable=0;fillColor=none;top=0;left=0;bottom=0;right=0;align=left;spacingLeft=6;overflow=hidden;rounded=0;sketch=0;fontColor=#46495D;strokeColor=#788AA3;" vertex="1" parent="x7z8SHMq9wQ8COiHljea-171">
          <mxGeometry x="30" width="150" height="30" as="geometry">
            <mxRectangle width="150" height="30" as="alternateBounds" />
          </mxGeometry>
        </mxCell>
        <mxCell id="x7z8SHMq9wQ8COiHljea-174" value="" style="shape=tableRow;horizontal=0;startSize=0;swimlaneHead=0;swimlaneBody=0;fillColor=none;collapsible=0;dropTarget=0;points=[[0,0.5],[1,0.5]];portConstraint=eastwest;top=0;left=0;right=0;bottom=0;rounded=0;sketch=0;fontColor=#46495D;strokeColor=#788AA3;" vertex="1" parent="x7z8SHMq9wQ8COiHljea-158">
          <mxGeometry y="180" width="180" height="30" as="geometry" />
        </mxCell>
        <mxCell id="x7z8SHMq9wQ8COiHljea-175" value="" style="shape=partialRectangle;connectable=0;fillColor=none;top=0;left=0;bottom=0;right=0;editable=1;overflow=hidden;rounded=0;sketch=0;fontColor=#46495D;strokeColor=#788AA3;" vertex="1" parent="x7z8SHMq9wQ8COiHljea-174">
          <mxGeometry width="30" height="30" as="geometry">
            <mxRectangle width="30" height="30" as="alternateBounds" />
          </mxGeometry>
        </mxCell>
        <mxCell id="x7z8SHMq9wQ8COiHljea-176" value="debt" style="shape=partialRectangle;connectable=0;fillColor=none;top=0;left=0;bottom=0;right=0;align=left;spacingLeft=6;overflow=hidden;rounded=0;sketch=0;fontColor=#46495D;strokeColor=#788AA3;" vertex="1" parent="x7z8SHMq9wQ8COiHljea-174">
          <mxGeometry x="30" width="150" height="30" as="geometry">
            <mxRectangle width="150" height="30" as="alternateBounds" />
          </mxGeometry>
        </mxCell>
        <mxCell id="x7z8SHMq9wQ8COiHljea-177" value="" style="shape=tableRow;horizontal=0;startSize=0;swimlaneHead=0;swimlaneBody=0;fillColor=none;collapsible=0;dropTarget=0;points=[[0,0.5],[1,0.5]];portConstraint=eastwest;top=0;left=0;right=0;bottom=0;rounded=0;sketch=0;fontColor=#46495D;strokeColor=#788AA3;" vertex="1" parent="x7z8SHMq9wQ8COiHljea-158">
          <mxGeometry y="210" width="180" height="30" as="geometry" />
        </mxCell>
        <mxCell id="x7z8SHMq9wQ8COiHljea-178" value="" style="shape=partialRectangle;connectable=0;fillColor=none;top=0;left=0;bottom=0;right=0;editable=1;overflow=hidden;rounded=0;sketch=0;fontColor=#46495D;strokeColor=#788AA3;" vertex="1" parent="x7z8SHMq9wQ8COiHljea-177">
          <mxGeometry width="30" height="30" as="geometry">
            <mxRectangle width="30" height="30" as="alternateBounds" />
          </mxGeometry>
        </mxCell>
        <mxCell id="x7z8SHMq9wQ8COiHljea-179" value="state" style="shape=partialRectangle;connectable=0;fillColor=none;top=0;left=0;bottom=0;right=0;align=left;spacingLeft=6;overflow=hidden;rounded=0;sketch=0;fontColor=#46495D;strokeColor=#788AA3;" vertex="1" parent="x7z8SHMq9wQ8COiHljea-177">
          <mxGeometry x="30" width="150" height="30" as="geometry">
            <mxRectangle width="150" height="30" as="alternateBounds" />
          </mxGeometry>
        </mxCell>
        <mxCell id="x7z8SHMq9wQ8COiHljea-182" value="" style="edgeStyle=orthogonalEdgeStyle;fontSize=12;html=1;endArrow=ERoneToMany;rounded=1;sketch=0;fontColor=#46495D;startSize=10;endSize=10;strokeColor=#788AA3;fillColor=#B2C9AB;exitX=0.5;exitY=0;exitDx=0;exitDy=0;entryX=0;entryY=0.5;entryDx=0;entryDy=0;" edge="1" parent="WIyWlLk6GJQsqaUBKTNV-1" source="x7z8SHMq9wQ8COiHljea-88" target="x7z8SHMq9wQ8COiHljea-143">
          <mxGeometry width="100" height="100" relative="1" as="geometry">
            <mxPoint x="250" y="520" as="sourcePoint" />
            <mxPoint x="320" y="490" as="targetPoint" />
          </mxGeometry>
        </mxCell>
        <mxCell id="x7z8SHMq9wQ8COiHljea-183" value="" style="edgeStyle=orthogonalEdgeStyle;fontSize=12;html=1;endArrow=none;rounded=1;sketch=0;fontColor=#46495D;startSize=10;endSize=10;strokeColor=#788AA3;fillColor=#B2C9AB;exitX=0.5;exitY=0;exitDx=0;exitDy=0;entryX=0;entryY=0.5;entryDx=0;entryDy=0;endFill=0;" edge="1" parent="WIyWlLk6GJQsqaUBKTNV-1" source="x7z8SHMq9wQ8COiHljea-126" target="x7z8SHMq9wQ8COiHljea-146">
          <mxGeometry width="100" height="100" relative="1" as="geometry">
            <mxPoint x="140" y="410" as="sourcePoint" />
            <mxPoint x="280" y="525" as="targetPoint" />
          </mxGeometry>
        </mxCell>
        <mxCell id="x7z8SHMq9wQ8COiHljea-184" value="" style="edgeStyle=orthogonalEdgeStyle;fontSize=12;html=1;endArrow=ERoneToMany;rounded=1;sketch=0;fontColor=#46495D;startSize=10;endSize=10;strokeColor=#788AA3;fillColor=#B2C9AB;exitX=0.5;exitY=0;exitDx=0;exitDy=0;entryX=1;entryY=0.5;entryDx=0;entryDy=0;" edge="1" parent="WIyWlLk6GJQsqaUBKTNV-1" source="x7z8SHMq9wQ8COiHljea-58" target="x7z8SHMq9wQ8COiHljea-162">
          <mxGeometry width="100" height="100" relative="1" as="geometry">
            <mxPoint x="150" y="420" as="sourcePoint" />
            <mxPoint x="290" y="535" as="targetPoint" />
          </mxGeometry>
        </mxCell>
        <mxCell id="x7z8SHMq9wQ8COiHljea-185" value="" style="edgeStyle=orthogonalEdgeStyle;fontSize=12;html=1;endArrow=ERoneToMany;rounded=1;sketch=0;fontColor=#46495D;startSize=10;endSize=10;strokeColor=#788AA3;fillColor=#B2C9AB;exitX=0.5;exitY=0;exitDx=0;exitDy=0;entryX=0;entryY=0.5;entryDx=0;entryDy=0;" edge="1" parent="WIyWlLk6GJQsqaUBKTNV-1" source="x7z8SHMq9wQ8COiHljea-139" target="x7z8SHMq9wQ8COiHljea-165">
          <mxGeometry width="100" height="100" relative="1" as="geometry">
            <mxPoint x="160" y="430" as="sourcePoint" />
            <mxPoint x="300" y="545" as="targetPoint" />
          </mxGeometry>
        </mxCell>
        <mxCell id="x7z8SHMq9wQ8COiHljea-189" value="" style="edgeStyle=orthogonalEdgeStyle;fontSize=12;html=1;endArrow=none;rounded=1;sketch=0;fontColor=#46495D;startSize=10;endSize=10;strokeColor=#788AA3;fillColor=#B2C9AB;exitX=1;exitY=0.5;exitDx=0;exitDy=0;entryX=0.5;entryY=0;entryDx=0;entryDy=0;startArrow=ERoneToMany;startFill=0;endFill=0;" edge="1" parent="WIyWlLk6GJQsqaUBKTNV-1" source="x7z8SHMq9wQ8COiHljea-186" target="x7z8SHMq9wQ8COiHljea-107">
          <mxGeometry width="100" height="100" relative="1" as="geometry">
            <mxPoint x="170" y="440" as="sourcePoint" />
            <mxPoint x="310" y="555" as="targetPoint" />
          </mxGeometry>
        </mxCell>
      </root>
    </mxGraphModel>
  </diagram>
</mxfile>
